<svg xmlns="http://www.w3.org/2000/svg" height="200" viewBox="1052 796 200 200" width="200"><path d="m1151.998 921.75c-4.129 0-8.17-.771-12.01-2.292l-50.167-19.888v32.066c0 15.562 27.836 28.174 62.178 28.174s62.181-12.612 62.181-28.174v-32.067l-50.172 19.889c-3.84 1.521-7.881 2.292-12.01 2.292z"></path><path d="m1248.592 867.082-87.989-34.878c-5.526-2.19-11.681-2.19-17.208 0l-87.988 34.878c-2.057.815-3.407 2.804-3.407 5.016 0 2.213 1.351 4.201 3.407 5.017l12.317 4.882v34.925c-2.736 1.865-4.533 5.007-4.533 8.568 0 3.262 1.508 6.171 3.863 8.071l-3.751 18.007c-.503 2.416.108 4.931 1.666 6.845 1.557 1.915 3.894 3.026 6.361 3.026h4.449c2.468 0 4.804-1.111 6.361-3.026 1.557-1.914 2.168-4.429 1.666-6.845l-3.752-18.007c2.356-1.9 3.864-4.81 3.864-8.071 0-3.562-1.797-6.703-4.533-8.568v-30.303l63.729 25.264c5.708 2.263 12.063 2.263 17.771 0l87.709-34.768c2.057-.815 3.407-2.804 3.407-5.017-.001-2.212-1.352-4.201-3.409-5.016z"></path></svg>